<svg width="20" height="20" viewBox="0 0 20 20" fill="none" xmlns="http://www.w3.org/2000/svg">
<path opacity="0.2" d="M20 10C20 15.5228 15.5228 20 10 20C4.47715 20 0 15.5228 0 10C0 4.47715 4.47715 0 10 0C15.5228 0 20 4.47715 20 10ZM3 10C3 13.866 6.13401 17 10 17C13.866 17 17 13.866 17 10C17 6.13401 13.866 3 10 3C6.13401 3 3 6.13401 3 10Z" fill="#333B47"/>
<path d="M10 1.5C10 0.671573 10.6753 -0.0115217 11.4944 0.112283C13.1368 0.360522 14.6999 1.01543 16.0367 2.02766C17.7742 3.34331 19.0343 5.19058 19.6253 7.28835C20.2163 9.38611 20.1058 11.6195 19.3106 13.6487C18.6988 15.2099 17.7075 16.5844 16.4362 17.6535C15.8021 18.1867 14.8695 17.9566 14.4371 17.25C14.0046 16.5434 14.2417 15.6298 14.8402 15.057C15.57 14.3584 16.1445 13.5058 16.5174 12.5541C17.0741 11.1337 17.1514 9.57028 16.7377 8.10184C16.324 6.6334 15.4419 5.34032 14.2257 4.41936C13.4108 3.80232 12.4758 3.37496 11.4886 3.1601C10.6791 2.98392 10 2.32843 10 1.5Z" fill="#333B47"/>
</svg>
