<svg width="24" height="24" viewBox="0 0 24 24" fill="none" xmlns="http://www.w3.org/2000/svg">
<path d="M8.58724 8.23594L11.1852 3.00394C11.2609 2.85253 11.3772 2.72517 11.5211 2.63616C11.6651 2.54715 11.831 2.5 12.0002 2.5C12.1695 2.5 12.3354 2.54715 12.4793 2.63616C12.6233 2.72517 12.7396 2.85253 12.8152 3.00394L15.4132 8.23594L21.2212 9.07994C21.3888 9.10317 21.5464 9.17303 21.6761 9.28155C21.8058 9.39007 21.9024 9.53288 21.9549 9.69367C22.0073 9.85446 22.0135 10.0268 21.9727 10.1909C21.932 10.355 21.8458 10.5044 21.7242 10.6219L17.5222 14.6919L18.5142 20.4419C18.6412 21.1799 17.8612 21.7419 17.1942 21.3939L12.0002 18.6779L6.80524 21.3939C6.13924 21.7429 5.35924 21.1799 5.48624 20.4409L6.47824 14.6909L2.27624 10.6209C2.15522 10.5033 2.06964 10.3541 2.0292 10.1903C1.98877 10.0264 1.99511 9.85451 2.04751 9.69409C2.0999 9.53367 2.19625 9.39116 2.32561 9.28277C2.45496 9.17439 2.61212 9.10446 2.77924 9.08094L8.58724 8.23594Z" stroke="#111418" stroke-width="2" stroke-linecap="round" stroke-linejoin="round"/>
</svg>
